
<svg version="1.0" xmlns="http://www.w3.org/2000/svg"
 width="512.000000pt" height="512.000000pt" viewBox="0 0 512.000000 512.000000"
 preserveAspectRatio="xMidYMid meet">

<g transform="translate(0.000000,512.000000) scale(0.100000,-0.100000)"
fill="#000000" stroke="none">
<path d="M2257 4845 c-253 -32 -499 -106 -687 -207 -285 -154 -534 -410 -656
-673 -197 -426 -123 -1171 152 -1535 70 -92 125 -208 153 -320 26 -103 45
-296 37 -368 -4 -32 -2 -52 4 -52 20 0 158 151 218 237 69 101 142 242 167
323 13 42 18 99 20 235 4 253 28 345 116 440 80 86 239 126 364 91 81 -23 160
-79 211 -149 66 -89 69 -105 68 -342 0 -234 -14 -337 -65 -490 -37 -109 -56
-141 -137 -227 -117 -126 -161 -291 -184 -686 -10 -173 -9 -205 3 -217 8 -7
143 -103 300 -213 l286 -200 39 9 c62 14 234 11 298 -6 32 -9 125 -43 205 -77
294 -123 442 -163 579 -156 137 7 190 43 251 173 96 203 113 470 44 703 -54
185 -57 232 -15 313 38 75 62 77 95 8 l25 -53 33 48 c49 68 57 99 58 209 1 78
-3 105 -18 136 -43 84 -165 161 -256 161 -80 0 -191 -59 -335 -179 -30 -26
-62 -52 -71 -59 -14 -10 -57 31 -320 310 -167 178 -328 349 -357 380 l-54 57
21 288 c28 370 24 349 66 363 45 15 191 107 256 162 138 116 238 298 255 464
7 62 8 64 35 64 97 0 256 -51 406 -130 l93 -49 21 22 c42 44 110 146 135 203
35 78 44 191 20 266 -46 142 -198 321 -367 434 -211 140 -460 230 -779 279
-146 23 -587 29 -733 10z"/>
<path d="M3991 3597 c-1 -5 32 -142 73 -306 41 -164 78 -320 81 -347 6 -44 4
-51 -19 -73 -14 -14 -55 -34 -90 -45 l-64 -21 102 -171 c260 -435 272 -515
101 -649 -19 -15 -19 -16 5 -4 111 54 159 160 125 276 -22 76 -96 226 -190
387 -41 71 -75 131 -75 132 0 2 23 13 50 25 28 12 62 36 76 52 23 27 26 38 21
82 -3 27 -24 117 -47 198 -41 150 -147 479 -149 464z"/>
</g>
</svg>
