<?xml version="1.0" standalone="no"?>
<!DOCTYPE svg PUBLIC "-//W3C//DTD SVG 20010904//EN"
 "http://www.w3.org/TR/2001/REC-SVG-20010904/DTD/svg10.dtd">
<svg version="1.0" xmlns="http://www.w3.org/2000/svg"
 width="735.000000pt" height="784.000000pt" viewBox="0 0 735.000000 784.000000"
 preserveAspectRatio="xMidYMid meet">

<g transform="translate(0.000000,784.000000) scale(0.100000,-0.100000)"
fill="#000000" stroke="none">
<path d="M6109 7693 c-62 -82 -289 -373 -504 -648 -386 -494 -1206 -1546
-1628 -2090 -239 -307 -231 -300 -458 -435 -132 -79 -258 -141 -764 -375 -198
-92 -504 -234 -681 -316 -176 -82 -328 -149 -338 -149 -10 0 -55 35 -101 78
-142 134 -310 216 -504 248 -487 79 -940 -218 -1083 -711 -20 -69 -23 -101
-22 -240 0 -144 3 -169 27 -248 78 -254 228 -454 430 -573 162 -96 392 -154
562 -140 162 13 354 79 482 167 283 193 455 564 414 893 -7 56 -28 148 -46
205 l-34 103 162 78 c212 102 370 163 487 190 52 13 266 64 475 115 406 99
465 112 465 98 0 -4 -40 -170 -89 -368 -49 -198 -99 -405 -111 -460 -43 -193
-90 -327 -186 -528 -52 -109 -94 -203 -94 -208 0 -15 -28 -11 -101 16 -170 61
-407 72 -569 25 -143 -41 -303 -135 -423 -249 -406 -385 -371 -1081 71 -1433
93 -74 145 -104 257 -149 55 -22 91 -42 93 -52 2 -9 -15 -94 -37 -189 -57
-246 -75 -337 -69 -343 3 -3 45 3 94 14 49 10 110 22 136 26 33 4 51 12 59 26
5 11 20 112 33 224 12 113 27 210 34 217 6 6 60 17 119 24 240 30 423 121 584
291 110 117 196 270 235 418 29 109 27 382 -4 488 -45 156 -115 278 -236 416
-44 49 -66 83 -66 99 0 14 111 262 247 551 135 289 291 623 345 741 177 384
301 607 395 710 21 24 70 67 109 95 65 49 580 451 1639 1280 677 531 1091 854
1253 979 85 67 152 126 152 135 0 20 -27 61 -41 61 -9 0 -211 -122 -1782
-1078 -384 -233 -700 -423 -702 -421 -2 2 336 564 751 1248 l755 1244 -28 23
c-15 13 -33 23 -39 24 -7 0 -63 -66 -125 -147z m-2078 -3094 c46 -23 80 -76
87 -134 15 -134 -142 -239 -258 -174 -43 24 -82 79 -94 132 -16 69 43 165 119
192 46 17 92 12 146 -16z m-2866 -849 c135 -35 218 -82 321 -185 75 -75 98
-105 132 -175 59 -124 76 -195 76 -330 0 -129 -22 -226 -73 -328 -161 -320
-538 -468 -883 -348 -103 36 -174 82 -264 171 -67 66 -89 97 -128 175 -62 126
-79 212 -73 360 5 132 31 227 91 335 68 120 198 237 322 290 136 58 334 72
479 35z m1614 -1584 c373 -131 567 -503 460 -886 -33 -121 -83 -204 -179 -301
-131 -132 -272 -194 -470 -206 -231 -14 -469 92 -602 267 -129 171 -180 420
-128 624 50 195 192 372 370 460 128 63 195 77 350 72 102 -3 138 -9 199 -30z"/>
<path d="M1420 7141 c-14 -4 -39 -15 -55 -24 -17 -8 -321 -307 -677 -664 -672
-673 -687 -690 -688 -771 0 -98 92 -142 189 -89 24 12 239 218 508 482 256
253 475 465 487 472 57 33 163 25 199 -15 16 -18 -9 -44 -533 -568 -486 -485
-550 -553 -550 -579 0 -45 25 -75 63 -75 28 0 87 55 587 554 l555 555 54 -48
53 -48 -548 -552 c-499 -502 -573 -580 -574 -603 -1 -21 43 -48 78 -48 37 0
53 15 573 536 294 294 542 540 552 545 20 11 46 0 96 -43 l34 -30 -559 -559
c-307 -307 -562 -567 -565 -576 -19 -54 51 -105 100 -74 8 5 261 256 562 557
l547 547 46 -49 c25 -27 46 -51 46 -54 0 -3 -247 -255 -550 -560 -302 -305
-551 -561 -551 -570 -5 -63 51 -102 101 -70 8 5 261 256 563 557 l548 548 50
-55 49 -54 -555 -556 c-586 -586 -576 -575 -539 -628 11 -16 26 -22 52 -22 36
-1 56 18 583 550 l545 551 59 -45 58 -45 -544 -546 c-299 -301 -548 -553 -552
-561 -5 -8 -9 -29 -9 -46 -1 -37 23 -58 66 -58 28 -1 92 60 585 556 l554 557
48 -54 48 -54 -555 -555 c-601 -603 -583 -581 -529 -636 29 -29 51 -26 100 11
17 13 267 262 555 554 l524 531 53 -52 53 -53 -556 -556 c-532 -532 -555 -557
-552 -589 2 -22 12 -40 29 -53 26 -18 28 -18 63 -2 22 11 245 229 577 564
l540 546 54 -60 53 -59 -456 -458 c-252 -252 -455 -458 -453 -458 2 0 79 36
170 81 l166 81 323 321 c177 177 327 323 331 325 6 2 88 -56 121 -86 3 -2 -78
-85 -180 -183 l-185 -178 130 53 c150 60 223 104 282 169 35 38 44 43 54 31
21 -26 65 -15 143 36 42 27 93 58 113 69 41 21 96 75 162 160 l42 55 -1088
1089 c-622 622 -1104 1097 -1125 1108 -44 22 -112 32 -148 20z"/>
<path d="M4333 4219 l-88 -66 -107 -194 c-58 -107 -130 -239 -159 -294 -55
-102 -209 -438 -204 -443 2 -2 48 13 103 32 137 47 245 69 307 61 115 -14 310
-141 481 -313 251 -252 443 -560 783 -1257 237 -485 390 -772 470 -878 51 -69
140 -133 218 -157 122 -38 301 -24 498 37 197 61 481 228 598 352 112 119 141
210 87 279 -12 15 -669 675 -1460 1467 l-1439 1441 -88 -67z"/>
<path d="M3165 3754 c-138 -29 -167 -50 -427 -311 -206 -207 -238 -243 -238
-269 0 -39 27 -64 70 -64 31 0 59 25 334 301 292 292 357 360 339 358 -4 0
-39 -7 -78 -15z"/>
<path d="M2688 3634 c-3 -3 -36 -10 -73 -15 -91 -13 -149 -47 -240 -139 -84
-87 -92 -113 -50 -155 40 -41 60 -33 169 73 56 54 131 127 169 162 37 35 67
67 67 72 0 9 -34 11 -42 2z"/>
<path d="M2989 3203 c-180 -186 -208 -227 -209 -301 0 -56 14 -80 55 -98 73
-30 177 -7 202 46 31 65 147 530 133 530 -5 0 -86 -80 -181 -177z"/>
</g>
</svg>
