
<svg version="1.0" xmlns="http://www.w3.org/2000/svg"
 width="396.000000pt" height="400.000000pt" viewBox="0 0 396.000000 400.000000"
 preserveAspectRatio="xMidYMid meet">

<g transform="translate(0.000000,400.000000) scale(0.100000,-0.100000)"
fill="#000000" stroke="none">
<path d="M1131 3589 c-130 -46 -211 -147 -236 -291 l-6 -38 -114 0 -115 0 0
-115 c0 -103 2 -115 18 -116 9 0 60 -1 112 -2 l95 -2 3 -872 2 -873 935 0 935
0 2 873 3 872 348 3 347 2 0 115 0 115 -115 0 -114 0 -6 38 c-19 112 -65 186
-153 249 -90 65 -60 63 -1019 62 -828 0 -870 -1 -922 -20z m1401 -726 c-1
-285 -4 -527 -7 -538 -6 -22 -194 -115 -232 -115 -12 0 -71 22 -131 50 -60 27
-133 54 -162 60 -71 13 -153 -2 -244 -45 -99 -47 -145 -65 -167 -65 -10 0 -67
23 -127 50 -129 59 -206 77 -268 61 -24 -6 -48 -11 -53 -11 -8 0 -11 153 -11
493 0 446 2 495 17 517 18 27 37 42 68 52 11 3 313 6 670 7 l650 1 -3 -517z
m409 494 c21 -13 49 -60 49 -81 0 -14 -16 -16 -116 -16 l-116 0 7 28 c18 74
110 110 176 69z m-1559 -1318 c174 -81 249 -80 438 7 53 24 109 44 124 44 15
0 78 -23 139 -52 99 -46 121 -52 192 -56 72 -4 89 -1 160 27 44 17 83 31 88
31 9 0 9 -62 -1 -76 -7 -11 -106 -60 -179 -89 -52 -21 -66 -18 -195 42 -169
77 -249 75 -429 -8 -58 -27 -114 -49 -124 -49 -10 0 -70 23 -132 51 -131 57
-201 73 -275 59 -28 -6 -52 -10 -54 -10 -2 0 -4 20 -4 45 0 44 2 46 43 65 64
28 89 24 209 -31z m0 -351 c113 -53 113 -53 213 -53 100 1 101 1 211 53 61 29
124 52 140 52 16 0 71 -21 123 -45 51 -25 114 -50 138 -57 66 -16 177 -5 247
26 32 14 63 26 68 26 5 0 7 -39 6 -87 l-3 -88 -697 -3 -698 -2 0 95 0 96 43
19 c23 11 54 20 69 20 14 0 77 -24 140 -52z"/>
<path d="M2997 2904 c-4 -4 -7 -425 -7 -936 l0 -928 -812 2 -813 3 -5 55 -5
55 -112 3 -113 3 0 -176 0 -175 1048 2 1047 3 0 1045 0 1045 -111 3 c-60 1
-113 -1 -117 -4z"/>
</g>
</svg>
